<?xml version="1.0" encoding="iso-8859-1"?>
<!-- Generator: Adobe Illustrator 19.0.0, SVG Export Plug-In . SVG Version: 6.00 Build 0)  -->
<svg version="1.1" id="Capa_1" xmlns="http://www.w3.org/2000/svg" xmlns:xlink="http://www.w3.org/1999/xlink" x="0px" y="0px"
	 viewBox="0 0 511.999 511.999" style="enable-background:new 0 0 511.999 511.999;" xml:space="preserve">
<g>
	<g>
		<path d="M492.599,351.775c3.15-9.346,2.195-19.778-2.988-28.506c-9.678-16.303-30.815-21.693-47.117-12.015l-66.724,39.609
			c-2.32,1.377-4.464,3.053-6.421,4.977l-7.698,0.535c1.639-10.042-0.746-22.703-14.855-32.313
			c-55.58-37.863-65.151-46.002-82.228-49.788c-18.668-4.074-31.692-6.864-42.243-8.456c-4.094-0.618-7.917,2.2-8.535,6.297
			c-0.618,4.096,2.201,7.917,6.297,8.535c14.093,2.127,37.498,7.52,41.145,8.25c14.311,3.412,20.489,8.983,77.121,47.56
			c13.172,8.972,8.055,20.728,6.341,23.872c-4.593,5.497-12.114,7.549-18.879,5.093l-54.727-19.888
			c-3.897-1.417-8.196,0.595-9.61,4.487c-1.415,3.893,0.594,8.196,4.487,9.61l54.727,19.889c11.887,4.317,25.014,1.245,33.738-7.609
			c130.288-9.062,121.684-8.865,126.302-8.123c20.284,3.252,24.157,31.77-2.979,39.083c-0.334,0.067-155.197,31.172-155.526,31.257
			c-20.916,5.464-38.344-3.125-45.016-7.187c-52.638-35.865-55.257-39.769-77.335-43.964c-17.01-3.23-28.693,0.898-41.48,6.237
			l-37.067-90.019c24.133-9.189,48.664-15.618,66.112-18.534c4.086-0.682,6.845-4.546,6.163-8.632
			c-0.682-4.085-4.536-6.845-8.632-6.164c-18.449,3.079-43.987,9.783-69.352,19.469l-2.586-6.281
			c-3.829-9.302-14.463-13.735-23.766-9.902l-77.763,32.021C4.518,304.058,0,310.803,0,318.363v156.025
			c0,11.166,11.353,18.835,21.734,14.571l135.187-55.514c9.282-3.822,13.724-14.483,9.902-23.766c0,0,0,0-0.001,0l-2.713-6.589
			c11.634-4.864,20.115-7.815,32.968-5.372c15.068,2.863,17.825,4.583,49.453,26.371c0.952,0.656,21.708,14.947,22.693,15.553
			c16.274,9.98,36.804,14.132,56.578,9.06l155.132-31.166c0.14-0.028,0.279-0.061,0.418-0.097
			C522.254,406.754,518.23,363.259,492.599,351.775z M477.834,348.435c-2.384-0.113-64.89,4.375-77.423,5.246l49.741-29.527
			c9.195-5.457,21.109-2.415,26.562,6.774C479.902,336.297,480.246,342.815,477.834,348.435z M151.219,419.574L16.037,475.083
			c-0.102,0.042-0.372,0.152-0.704-0.071C15,474.789,15,474.497,15,474.388V318.363c0-1.458,0.871-2.759,2.22-3.314l77.763-32.021
			c1.643-0.678,3.512,0.114,4.185,1.744c1.527,3.708,52.082,126.482,53.786,130.62C153.628,417.027,152.846,418.904,151.219,419.574
			z"/>
	</g>
</g>
<g>
	<g>
		<path d="M469.069,88.774h-8.058c-1.269-4.311-2.983-8.453-5.133-12.396l5.697-5.697c4.259-4.259,4.26-11.191-0.001-15.452
			l-10.182-10.182c-4.272-4.272-11.183-4.272-15.454-0.001l-5.696,5.696c-3.942-2.149-8.084-3.864-12.396-5.132v-8.058
			c0-6.025-4.901-10.927-10.927-10.927H392.52c-6.025,0-10.927,4.902-10.927,10.927v8.058c-4.312,1.268-8.453,2.983-12.396,5.133
			l-5.696-5.696c-4.272-4.272-11.183-4.272-15.454-0.001l-7.95,7.951c-2.415-0.837-4.857-1.59-7.323-2.231V34.75
			c0-7.117-5.79-12.906-12.906-12.906h-22.724c-7.116,0-12.906,5.79-12.906,12.906v16.011c-8.663,2.237-16.907,5.653-24.622,10.202
			L248.296,49.64c-5.043-5.045-13.209-5.046-18.254,0l-16.067,16.067c-5.031,5.032-5.031,13.22,0,18.253l11.323,11.323
			c-4.55,7.717-7.965,15.959-10.201,24.622h-16.011c-7.117,0-12.907,5.79-12.907,12.906v22.722c0,7.117,5.79,12.907,12.907,12.907
			h16.01c2.237,8.663,5.653,16.906,10.202,24.621l-11.323,11.324c-5.031,5.032-5.031,13.22,0,18.253l16.067,16.067
			c5.032,5.032,13.22,5.033,18.254,0l11.323-11.323c7.715,4.549,15.959,7.965,24.622,10.202v16.01
			c0,7.117,5.79,12.907,12.906,12.907h22.724c7.116,0,12.906-5.79,12.906-12.907v-16.01c8.663-2.237,16.907-5.653,24.622-10.202
			l11.322,11.322c5.045,5.046,13.208,5.045,18.254,0.001l16.067-16.068c5.031-5.033,5.031-13.221,0-18.252l-11.329-11.329
			c1.126-1.917,2.183-3.881,3.177-5.88h12.033c6.025,0,10.927-4.902,10.927-10.927v-8.058c4.311-1.269,8.453-2.983,12.396-5.133
			l5.695,5.695c4.266,4.266,11.182,4.274,15.454,0.001l10.184-10.184c4.26-4.26,4.26-11.192,0-15.452l-5.697-5.697
			c2.149-3.943,3.864-8.085,5.133-12.396h8.058c6.025,0,10.927-4.901,10.927-10.926V99.7
			C479.996,93.675,475.095,88.774,469.069,88.774z M377.847,226.617l-14.087-14.086c-2.546-2.546-6.54-2.922-9.518-0.9
			c-9.222,6.265-19.441,10.499-30.372,12.584c-3.536,0.674-6.095,3.767-6.095,7.367V251.5H299.24v-19.918
			c0-3.601-2.559-6.693-6.095-7.367c-10.932-2.085-21.151-6.319-30.372-12.584c-2.977-2.022-6.973-1.646-9.519,0.9l-14.086,14.086
			l-13.107-13.107l14.087-14.087c2.545-2.545,2.923-6.541,0.9-9.518c-6.267-9.223-10.5-19.441-12.584-30.371
			c-0.674-3.537-3.767-6.096-7.367-6.096h-19.919v-18.536h19.919c3.601,0,6.693-2.559,7.367-6.096
			c2.084-10.93,6.317-21.149,12.584-30.371c2.022-2.978,1.645-6.973-0.9-9.518l-14.087-14.086l13.107-13.107l14.086,14.087
			c2.547,2.546,6.543,2.923,9.519,0.9c9.222-6.266,19.44-10.5,30.372-12.584c3.536-0.674,6.095-3.767,6.095-7.367V36.843h18.536
			v19.918c0,3.601,2.559,6.693,6.096,7.367c3.945,0.752,7.859,1.811,11.682,3.156c0.52,1.201,1.3,2.384,2.313,3.396l5.697,5.697
			c-2.054,3.768-3.85,8.034-5.133,12.396h-7.544c-7.124-2.886-14.644-4.348-22.379-4.348c-32.943,0-59.746,26.801-59.746,59.746
			s26.802,59.747,59.746,59.747c23.308,0,44.267-13.403,54.095-34.362c0.001-0.001,0.001-0.001,0.002-0.002
			c0.309-0.248,0.61-0.512,0.897-0.799l5.696-5.696c3.942,2.149,8.085,3.865,12.396,5.133v8.058c0,1.004,0.206,2.282,0.44,3.081
			c-1.764,3.691-3.797,7.236-6.066,10.577c-2.023,2.978-1.646,6.973,0.899,9.518l14.087,14.087L377.847,226.617z M337.867,158.572
			l8.872,8.873c-8.037,13.229-22.411,21.474-38.229,21.474c-24.674,0-44.746-20.074-44.746-44.747
			c0-24.674,20.073-44.746,44.746-44.746c3.726,0,7.382,0.463,10.938,1.361v13.315c0,6.025,4.901,10.927,10.927,10.927h8.059
			c1.269,4.312,2.983,8.454,5.133,12.396l-5.695,5.695C333.599,147.385,333.593,154.301,337.867,158.572z M464.996,110.028h-9.879
			c-3.601,0-6.692,2.558-7.367,6.094c-1.253,6.569-3.792,12.7-7.545,18.222c-2.023,2.978-1.646,6.973,0.899,9.519l6.984,6.984
			l-4.423,4.422l-6.983-6.984c-2.545-2.546-6.542-2.923-9.52-0.899c-5.521,3.753-11.652,6.292-18.222,7.545
			c-3.536,0.675-6.094,3.767-6.094,7.367v9.879h-6.255v-9.879c0-3.604-2.565-6.693-6.094-7.367
			c-6.569-1.253-12.699-3.792-18.222-7.545c-2.977-2.023-6.973-1.646-9.52,0.9l-6.984,6.984l-4.422-4.423l6.984-6.984
			c2.546-2.546,2.923-6.542,0.899-9.52c-3.753-5.52-6.291-11.65-7.546-18.222c-0.676-3.536-3.768-6.093-7.367-6.093h-9.879v-6.254
			h9.879c3.6,0,6.691-2.558,7.367-6.093c1.209-6.336,3.77-12.669,7.546-18.222c2.023-2.978,1.646-6.974-0.899-9.52l-6.984-6.984
			l4.422-4.422l6.985,6.984c2.546,2.546,6.543,2.923,9.519,0.899c5.521-3.752,11.651-6.291,18.222-7.545
			c3.536-0.675,6.094-3.768,6.094-7.367v-9.879h6.255v9.879c0,3.6,2.558,6.692,6.094,7.367c6.57,1.254,12.7,3.792,18.222,7.545
			c2.976,2.023,6.974,1.648,9.52-0.899l6.983-6.984l4.423,4.422l-6.984,6.984c-2.545,2.546-2.923,6.542-0.899,9.519
			c3.753,5.522,6.292,11.653,7.545,18.222c0.675,3.536,3.768,6.094,7.367,6.094h9.879V110.028z"/>
	</g>
</g>
<g>
	<g>
		<path d="M432.679,115.055c-3.699-1.858-8.209-0.366-10.068,3.336c-1.233,2.455-2.841,4.683-4.778,6.621
			c-16.082,16.082-43.724,4.633-43.724-18.111c0-22.731,27.632-34.202,43.722-18.112c0.762,0.762,1.507,1.616,2.216,2.538
			c2.522,3.285,7.229,3.903,10.517,1.379c3.284-2.523,3.901-7.232,1.378-10.517c-1.103-1.436-2.281-2.783-3.502-4.005
			c-25.539-25.538-69.33-7.301-69.33,28.717c0,36.072,43.83,54.214,69.33,28.716c3.073-3.073,5.622-6.604,7.576-10.495
			C437.875,121.421,436.381,116.914,432.679,115.055z"/>
	</g>
</g>
<g>
</g>
<g>
</g>
<g>
</g>
<g>
</g>
<g>
</g>
<g>
</g>
<g>
</g>
<g>
</g>
<g>
</g>
<g>
</g>
<g>
</g>
<g>
</g>
<g>
</g>
<g>
</g>
<g>
</g>
</svg>
