<svg id="Capa_1" enable-background="new 0 0 512 512"  viewBox="0 0 512 512"  x="0px" y="0px" xmlns="http://www.w3.org/2000/svg"><g><g><g><path d="m242.465 512c14.341 0 25.966-11.625 25.966-25.966v-79.119h-87.112v79.119c0 14.34 11.625 25.966 25.966 25.966z" fill="#407093"/><path d="m265.512 406.915v79.119c0 14.341-11.625 25.966-25.966 25.966h65.169c14.34 0 25.966-11.625 25.966-25.966v-79.119z" fill="#365e7d"/><path d="m327.798 295.224c28.99-31.768 46.67-74.033 46.67-120.431 0-81.093-54.01-149.556-128.017-171.418l-22.981-.331c-81.567 15.297-143.286 87.451-142.905 173.189.202 45.361 17.62 86.653 46.057 117.684 32.035 34.957 52.274 78.79 58.26 125.343h83.867c6.767-46.046 27.305-89.251 59.049-124.036z" fill="#ffe07d"/><path d="m366.268 175.437c0 45.54-17.353 87.024-45.807 118.206-32.045 35.117-52.462 78.974-58.498 125.618h65.169c6.036-46.644 26.453-90.501 58.498-125.618 28.454-31.181 45.807-72.665 45.807-118.206 0-97.323-79.248-176.137-176.735-175.432-10.66.077-21.097 1.121-31.233 3.039 81.293 15.297 142.799 86.656 142.799 172.393z" fill="#ffd064"/><g><path d="m296.983 381.336c0-10.472-8.489-18.962-18.961-18.962h-104.92c-10.473 0-18.962 8.49-18.962 18.962s8.49 18.962 18.962 18.962h104.919c10.473 0 18.962-8.49 18.962-18.962z" fill="#e4f6ff"/><path d="m296.983 419.26c0-10.472-8.49-18.962-18.962-18.962h-104.918c-10.473 0-18.962 8.49-18.962 18.962 0 10.473 8.49 18.962 18.962 18.962h104.92c10.471 0 18.96-8.489 18.96-18.962z" fill="#d8e2f1"/><path d="m278.021 476.147c10.472 0 18.962-8.49 18.962-18.962s-8.49-18.962-18.962-18.962h.001-104.92c-10.473 0-18.962 8.49-18.962 18.962 0 10.473 8.49 18.962 18.962 18.962z" fill="#e4f6ff"/></g><g><path d="m338.898 362.373h-65.169c10.473 0 18.962 8.49 18.962 18.962 0 10.473-8.49 18.962-18.962 18.962h65.169c10.473 0 18.962-8.49 18.962-18.962s-8.49-18.962-18.962-18.962z" fill="#d8e2f1"/><path d="m338.898 400.298h-65.169c10.473 0 18.962 8.49 18.962 18.962 0 10.473-8.49 18.962-18.962 18.962h65.169c10.473 0 18.962-8.49 18.962-18.962s-8.49-18.962-18.962-18.962z" fill="#b9cbea"/><path d="m338.898 438.223h-65.169c10.473 0 18.962 8.49 18.962 18.962s-8.49 18.962-18.962 18.962h65.169c10.473 0 18.962-8.49 18.962-18.962s-8.49-18.962-18.962-18.962z" fill="#d8e2f1"/></g></g><g><g><g><path d="m382.581 184.745v-21.539c0-6.258-5.073-11.332-11.332-11.332h-1.28c-5.142 0-9.573-3.48-10.954-8.433-2.073-7.435-4.929-14.543-8.475-21.23-2.357-4.445-1.628-9.892 1.929-13.449l.652-.652c4.425-4.425 4.425-11.6 0-16.026l-15.23-15.23c-4.425-4.425-11.6-4.425-16.026 0l-.143.143c-3.624 3.624-9.195 4.304-13.669 1.806-6.864-3.832-14.193-6.929-21.882-9.185-4.799-1.408-8.07-5.845-8.07-10.847v-.045c0-6.258-5.073-11.332-11.332-11.332h-21.539c-6.258 0-11.332 5.073-11.332 11.332v.045c0 5.001-3.271 9.438-8.07 10.847-7.689 2.257-15.019 5.354-21.882 9.185-4.475 2.498-10.046 1.818-13.669-1.806l-.143-.143c-4.425-4.425-11.6-4.425-16.026 0l-15.23 15.23c-4.425 4.425-4.425 11.6 0 16.026l.652.652c3.558 3.558 4.286 9.004 1.929 13.449-3.545 6.687-6.401 13.795-8.475 21.23-1.381 4.953-5.812 8.433-10.954 8.433h-1.28c-6.258 0-11.332 5.073-11.332 11.332v21.539c0 6.258 5.073 11.332 11.332 11.332h2.295c5.009 0 9.363 3.307 10.857 8.089 2.229 7.136 5.186 13.951 8.783 20.358 2.462 4.385 1.624 9.886-1.932 13.442l-1.875 1.876c-4.425 4.425-4.425 11.6 0 16.026l15.23 15.23c4.425 4.425 11.6 4.425 16.026 0l2.384-2.384c3.491-3.491 8.868-4.372 13.224-2.048 6.346 3.384 13.073 6.148 20.101 8.209 4.807 1.41 8.056 5.895 8.056 10.904v3.447c0 6.258 5.073 11.332 11.332 11.332h21.539c6.258 0 11.332-5.073 11.332-11.332v-3.447c0-5.009 3.249-9.495 8.056-10.904 7.028-2.061 13.755-4.824 20.101-8.209 4.356-2.323 9.733-1.443 13.224 2.048l2.384 2.384c4.425 4.425 11.6 4.425 16.026 0l15.23-15.23c4.425-4.425 4.425-11.6 0-16.026l-1.876-1.876c-3.556-3.556-4.394-9.058-1.932-13.442 3.597-6.407 6.554-13.222 8.783-20.358 1.493-4.781 5.848-8.089 10.857-8.089h2.295c6.257 0 11.331-5.073 11.331-11.332z" fill="#f4fbff"/></g><g><circle cx="256" cy="172.244" fill="#cbe2ff" r="73.079"/><path d="m256 245.323c22.603 0 42.805-10.266 56.21-26.385-10.526-20.329-31.738-34.23-56.21-34.23-24.472 0-45.685 13.901-56.21 34.23 13.405 16.119 33.607 26.385 56.21 26.385z" fill="#407093"/><circle cx="256" cy="164.064" fill="#365e7d" r="27.005"/></g></g></g></g></g></svg>